<?xml version="1.0" standalone="no"?>
<!DOCTYPE svg PUBLIC "-//W3C//DTD SVG 20010904//EN"
 "http://www.w3.org/TR/2001/REC-SVG-20010904/DTD/svg10.dtd">
<svg version="1.0" xmlns="http://www.w3.org/2000/svg"
 width="512.000000pt" height="512.000000pt" viewBox="0 0 512.000000 512.000000"
 preserveAspectRatio="xMidYMid meet">
<metadata>
Created by potrace 1.11, written by Peter Selinger 2001-2013
</metadata>
<g transform="translate(0.000000,512.000000) scale(0.100000,-0.100000)"
fill="#000000" stroke="none">
<path d="M1 5093 c0 -16 3 -22 6 -13 3 8 10 21 16 28 7 8 5 12 -7 12 -11 0
-16 -8 -15 -27z"/>
<path d="M2144 5111 c12 -19 -19 -30 -158 -57 -46 -9 -298 -84 -331 -98 -26
-12 -60 -26 -75 -31 -26 -9 -80 -34 -155 -72 -49 -25 -101 -47 -115 -50 -13
-2 -43 -19 -65 -37 -22 -18 -69 -52 -105 -77 -297 -202 -517 -421 -715 -709
-32 -47 -78 -109 -103 -138 -31 -37 -47 -67 -53 -99 -10 -54 -79 -212 -117
-268 -15 -22 -27 -53 -28 -70 -1 -46 -15 -109 -26 -122 -6 -7 -8 -13 -5 -13 3
0 -3 -26 -14 -57 -18 -54 -29 -101 -34 -147 -1 -10 -11 -27 -23 -37 -22 -17
-22 -18 -22 -456 0 -337 3 -442 13 -452 10 -11 9 -12 -3 -6 -11 6 -10 3 2 -11
10 -11 29 -63 42 -115 58 -221 79 -288 110 -354 19 -38 42 -90 52 -115 60
-146 222 -419 319 -535 201 -241 279 -317 473 -465 298 -226 582 -360 966
-456 78 -19 146 -42 152 -49 8 -11 13 -12 24 -2 10 9 11 9 6 0 -5 -9 77 -12
358 -13 304 0 365 2 360 13 -10 28 26 41 120 43 50 1 93 3 96 4 3 1 8 2 11 2
4 -1 49 10 100 24 52 14 114 28 138 31 24 2 60 15 80 27 44 27 223 101 269
111 18 4 53 22 78 41 24 19 59 42 77 52 33 18 202 127 221 143 6 5 36 28 66
52 30 23 57 45 58 49 2 5 8 8 13 8 12 0 114 79 166 130 22 22 46 40 52 40 6 0
11 8 11 18 0 9 12 31 26 47 14 17 38 46 53 65 14 19 28 37 31 40 6 6 75 99
123 166 20 29 37 55 37 59 0 3 6 13 13 20 23 26 32 40 56 85 13 25 32 54 42
65 14 16 47 78 54 105 3 8 24 62 42 105 9 22 38 79 65 126 31 57 46 95 45 115
-2 16 7 62 19 102 13 40 22 73 22 75 -2 16 28 93 43 108 19 19 19 35 18 482 0
254 -3 456 -6 450 -2 -7 -9 -13 -14 -13 -6 0 -9 6 -8 13 1 6 -3 25 -9 40 -7
16 -12 35 -12 44 0 45 -87 332 -133 438 -68 157 -182 376 -199 383 -4 2 -8 7
-8 12 0 7 -21 40 -109 166 -19 27 -57 76 -85 109 -46 54 -73 84 -163 181 -34
37 -125 119 -177 159 -21 17 -44 35 -50 40 -54 49 -291 200 -409 262 -123 64
-289 137 -337 149 -30 7 -107 28 -170 47 -63 19 -141 40 -173 47 -31 6 -55 15
-52 20 3 4 -2 10 -10 13 -10 4 -12 1 -9 -11 5 -15 4 -15 -9 1 -13 16 -46 17
-426 17 -237 0 -410 -4 -407 -9z"/>
</g>
</svg>
